<svg clip-rule="evenodd" fill-rule="evenodd" height="512" image-rendering="optimizeQuality" shape-rendering="geometricPrecision" text-rendering="geometricPrecision" viewBox="0 0 17.69 23.65" width="382" xmlns="http://www.w3.org/2000/svg"><path d="m3.08 0h7.91l6.7 6.99v13.58c0 1.7-1.38 3.08-3.08 3.08h-11.53c-1.7 0-3.08-1.38-3.08-3.08v-17.49c0-1.7 1.38-3.08 3.08-3.08z" fill="#0ac963"/><g fill="#fff"><path d="m10.98 0v6.93h6.71z" fill-opacity=".301961"/><path d="m5.95 13.19c-.29 0-.52.23-.52.51v2.39c0 .28.23.51.52.51.28 0 .51-.23.51-.51v-2.39c0-.28-.23-.51-.51-.51zm4.13-2.02.42-.42c.07-.06.07-.17 0-.24-.06-.07-.17-.07-.24 0l-.49.49c-.59-.26-1.26-.26-1.86 0l-.48-.49c-.07-.06-.18-.06-.24.01-.06.06-.06.17 0 .23l.41.42c-.5.33-.81.9-.8 1.51 0 .09.07.17.17.17h3.75c.09 0 .17-.08.17-.17 0-.61-.3-1.18-.81-1.51zm-1.93.67c.04.04.06.1.06.16s-.02.11-.06.15-.1.06-.16.06-.11-.02-.15-.06-.07-.09-.07-.15.03-.12.07-.16.09-.06.15-.06.12.02.16.06zm1.7 0c.04.04.07.1.07.16s-.03.11-.07.15-.09.06-.15.06-.12-.02-.16-.06-.06-.09-.06-.15.02-.12.06-.16.1-.06.16-.06.11.02.15.06zm.87 1.35h-3.75c-.1 0-.17.08-.17.17v2.73c0 .4.28.75.68.83v1.21c0 .29.23.52.51.52s.51-.23.51-.52v-1.19h.68v1.19c0 .29.23.52.52.52.28 0 .51-.23.51-.52v-1.21c.39-.08.68-.43.68-.83v-2.73c0-.09-.08-.17-.17-.17zm1.02 0c-.28 0-.51.23-.51.51v2.39c0 .28.23.51.51.51s.51-.23.51-.51v-2.39c0-.28-.23-.51-.51-.51z" fill-rule="nonzero"/></g></svg>