<svg clip-rule="evenodd" fill-rule="evenodd" height="512" image-rendering="optimizeQuality" shape-rendering="geometricPrecision" text-rendering="geometricPrecision" viewBox="0 0 20.49 27.4" width="382" xmlns="http://www.w3.org/2000/svg"><path d="m3.56 0h9.17l7.76 8.1v15.73c0 1.97-1.59 3.57-3.56 3.57h-13.37c-1.96 0-3.56-1.6-3.56-3.57v-20.27c0-1.96 1.6-3.56 3.56-3.56z" fill="#092f41"/><g fill="#fff"><path d="m12.72 0v8.03h7.77z" fill-opacity=".301961"/><path d="m6.94 19.18-.3-.88h-1.53l-.3.88h-1.23l1.73-4.64h1.12l1.73 4.64zm-1.49-1.86h.85l-.43-1.23zm3.08 1.86v-4.64h1.98c.48 0 .87.14 1.16.41.3.27.44.63.44 1.08s-.14.81-.44 1.08c-.29.27-.68.4-1.16.4h-.79v1.67zm1.19-2.68h.66c.17 0 .31-.04.41-.12.09-.09.14-.2.14-.35s-.05-.27-.14-.35c-.1-.09-.24-.13-.41-.13h-.66zm5.7 2.68-1.24-1.91-.39.42v1.49h-1.19v-4.64h1.19v1.57l1.44-1.57h1.54l-1.76 1.87 1.9 2.77z" fill-rule="nonzero"/></g></svg>