<svg clip-rule="evenodd" fill-rule="evenodd" height="512" image-rendering="optimizeQuality" shape-rendering="geometricPrecision" text-rendering="geometricPrecision" viewBox="0 0 20.49 27.4" width="382" xmlns="http://www.w3.org/2000/svg"><path d="m3.56 0h9.17l7.76 8.1v15.73c0 1.97-1.59 3.57-3.56 3.57h-13.37c-1.96 0-3.56-1.6-3.56-3.57v-20.27c0-1.96 1.6-3.56 3.56-3.56z" fill="#00a1e0"/><g fill="#fff"><path d="m12.72 0v8.03h7.77z" fill-opacity=".301961"/><path d="m12.07 20.44h-.52v-.99h.11c.26 0 .39-.14.39-.42v-1.45c0-.23.06-.41.16-.53.11-.11.27-.21.48-.3-.2-.08-.36-.18-.47-.3s-.17-.29-.17-.52v-1.45c0-.28-.13-.42-.39-.42h-.11v-.99h.52c.31 0 .56.1.76.3s.3.45.3.75v1.55c0 .38.21.57.63.57v1.03c-.42 0-.63.19-.63.58v1.54c0 .3-.1.55-.3.75s-.45.3-.76.3zm-3.65 0c-.3 0-.56-.1-.76-.3s-.3-.45-.3-.75v-1.54c0-.39-.21-.58-.63-.58v-1.03c.42 0 .63-.19.63-.57v-1.55c0-.3.1-.55.3-.75s.46-.3.76-.3h.53v.99h-.12c-.26 0-.39.14-.39.42v1.45c0 .23-.05.4-.16.52s-.27.22-.48.3c.21.09.37.19.48.3.11.12.16.3.16.53v1.45c0 .28.13.42.39.42h.12v.99z" fill-rule="nonzero"/></g></svg>