<svg clip-rule="evenodd" fill-rule="evenodd" height="512" image-rendering="optimizeQuality" shape-rendering="geometricPrecision" text-rendering="geometricPrecision" viewBox="0 0 20.49 27.4" width="382" xmlns="http://www.w3.org/2000/svg"><path d="m3.56 0h9.17l7.76 8.1v15.73c0 1.97-1.59 3.57-3.56 3.57h-13.37c-1.96 0-3.56-1.6-3.56-3.57v-20.27c0-1.96 1.6-3.56 3.56-3.56z" fill="#008bf5"/><g fill="#fff"><path d="m12.72 0v8.03h7.77z" fill-opacity=".301961"/><path d="m13.38 13.94c-1.73-1.73-4.53-1.73-6.26 0s-1.73 4.53 0 6.26 4.53 1.73 6.26 0c1.72-1.73 1.72-4.53 0-6.26zm-5.54 6.22c-.26-.19-.49-.42-.68-.68.58-.44 1.17-.87 1.75-1.31.08.11.13.16.24.24-.44.58-.87 1.17-1.31 1.75zm3.31-2.19c-.5.5-1.31.5-1.8 0-.5-.5-.5-1.3 0-1.8.49-.49 1.3-.49 1.8 0 .49.5.49 1.3 0 1.8zm.43-2c-.08-.11-.13-.15-.23-.23.43-.59.87-1.17 1.3-1.76.26.19.49.43.69.69-.59.43-1.17.87-1.76 1.3z" fill-rule="nonzero"/></g></svg>