<svg clip-rule="evenodd" fill-rule="evenodd" height="512" image-rendering="optimizeQuality" shape-rendering="geometricPrecision" text-rendering="geometricPrecision" viewBox="0 0 55.48 74.18" width="382" xmlns="http://www.w3.org/2000/svg"><path d="m9.65 0h24.82l21.01 21.92v42.61c0 5.33-4.32 9.65-9.65 9.65h-36.18c-5.33 0-9.65-4.32-9.65-9.65v-54.88c0-5.33 4.32-9.65 9.65-9.65z" fill="#0263d1" fill-rule="nonzero"/><g fill="#fff"><path d="m34.44 0v21.74h21.04z" fill-opacity=".301961"/><path d="m8.96 52.93v-12.28h4.35c.87 0 1.68.13 2.43.37.75.25 1.43.61 2.04 1.09s1.09 1.12 1.44 1.92.53 1.72.53 2.76-.18 1.96-.53 2.76-.83 1.44-1.44 1.92-1.29.84-2.04 1.09c-.75.24-1.56.37-2.43.37zm3.07-2.67h.91c.49 0 .95-.06 1.36-.17.42-.12.8-.31 1.16-.56s.64-.61.84-1.08c.21-.46.31-1.02.31-1.66s-.1-1.2-.31-1.67c-.2-.46-.48-.82-.84-1.07-.36-.26-.74-.44-1.16-.56-.41-.11-.87-.17-1.36-.17h-.91zm15.17 2.81c-1.85 0-3.38-.6-4.59-1.79s-1.81-2.69-1.81-4.49.6-3.3 1.81-4.49 2.74-1.79 4.59-1.79c1.82 0 3.33.6 4.54 1.79 1.2 1.19 1.8 2.69 1.8 4.49s-.6 3.3-1.8 4.49c-1.21 1.19-2.72 1.79-4.54 1.79zm-2.36-3.69c.61.68 1.39 1.02 2.34 1.02s1.72-.34 2.33-1.02c.61-.69.91-1.55.91-2.59s-.3-1.9-.91-2.59c-.61-.68-1.38-1.02-2.33-1.02s-1.73.34-2.34 1.02c-.61.69-.92 1.55-.92 2.59s.31 1.9.92 2.59zm16 3.69c-1.79 0-3.28-.56-4.46-1.66-1.19-1.11-1.78-2.65-1.78-4.62 0-1.96.6-3.5 1.8-4.61 1.21-1.11 2.68-1.67 4.44-1.67 1.59 0 2.89.39 3.92 1.18 1.02.78 1.61 1.82 1.76 3.12l-3.1.63c-.13-.68-.44-1.23-.92-1.64s-1.04-.62-1.68-.62c-.88 0-1.61.31-2.2.94-.59.64-.89 1.52-.89 2.67s.3 2.03.88 2.66c.59.64 1.32.95 2.21.95.64 0 1.19-.18 1.64-.54s.73-.84.85-1.44l3.17.72c-.29 1.24-.93 2.2-1.93 2.89-.99.69-2.23 1.04-3.71 1.04z" fill-rule="nonzero"/></g></svg>