<svg clip-rule="evenodd" fill-rule="evenodd" height="512" image-rendering="optimizeQuality" shape-rendering="geometricPrecision" text-rendering="geometricPrecision" viewBox="0 0 17.69 23.65" width="382" xmlns="http://www.w3.org/2000/svg"><path d="m3.08 0h7.91l6.7 6.99v13.58c0 1.7-1.38 3.08-3.08 3.08h-11.53c-1.7 0-3.08-1.38-3.08-3.08v-17.49c0-1.7 1.38-3.08 3.08-3.08z" fill="#00733b"/><g fill="#fff"><path d="m10.98 0v6.93h6.71z" fill-opacity=".301961"/><path d="m5.21 17.35h3.14v1.19h-3.14zm4.12-6.08h3.15v1.18h-3.15zm-4.12 0h3.14v1.18h-3.14zm4.12 2h3.15v1.19h-3.15zm-4.12 0h3.14v1.19h-3.14zm4.12 2.08h3.15v1.19h-3.15zm-4.12 0h3.14v1.19h-3.14zm4.12 2h3.15v1.19h-3.15z"/></g></svg>