<svg clip-rule="evenodd" fill-rule="evenodd" height="512" image-rendering="optimizeQuality" shape-rendering="geometricPrecision" text-rendering="geometricPrecision" viewBox="0 0 24.33 32.53" width="382" xmlns="http://www.w3.org/2000/svg"><path d="m4.23 0h10.88l9.22 9.61v18.69c0 2.33-1.9 4.23-4.23 4.23h-15.87c-2.34 0-4.23-1.9-4.23-4.23v-24.07c0-2.34 1.89-4.23 4.23-4.23z" fill="#008bf5"/><g fill="#fff"><path d="m15.1 0v9.53h9.23z" fill-opacity=".301961"/><path d="m5.45 23.63v-5.91h1.51v5.91zm4.51.07c-.59 0-1.12-.19-1.56-.55-.45-.37-.69-.82-.73-1.35l1.3-.38c.03.29.14.53.35.72s.45.29.71.29c.22 0 .4-.05.53-.14.14-.1.2-.23.2-.38 0-.13-.05-.24-.16-.33-.1-.09-.24-.17-.41-.22-.18-.06-.37-.11-.58-.17s-.42-.13-.63-.22c-.2-.09-.39-.2-.57-.32-.17-.12-.31-.3-.41-.52-.11-.22-.16-.48-.16-.78 0-.48.2-.89.62-1.21.41-.32.91-.49 1.49-.49s1.09.15 1.52.43.7.65.8 1.1l-1.35.57c-.06-.26-.17-.46-.34-.61s-.38-.22-.63-.22c-.19 0-.34.04-.45.11-.11.08-.16.18-.16.31s.07.23.22.31c.14.07.33.13.54.17.22.04.45.1.71.18.25.08.48.19.7.31.22.13.4.32.55.59.14.27.21.59.21.96 0 .55-.21.99-.63 1.33-.43.34-.99.51-1.68.51zm5.87 0c-.89 0-1.63-.29-2.21-.87-.58-.57-.87-1.29-.87-2.15 0-.87.29-1.59.87-2.16.58-.58 1.32-.87 2.21-.87.87 0 1.6.29 2.18.87.58.57.87 1.29.87 2.16 0 .86-.29 1.58-.87 2.15-.58.58-1.31.87-2.18.87zm-1.14-1.78c.3.33.67.49 1.13.49.45 0 .83-.16 1.12-.49s.44-.74.44-1.24c0-.51-.15-.92-.44-1.25s-.67-.49-1.12-.49c-.46 0-.83.16-1.13.49-.29.33-.44.74-.44 1.25 0 .5.15.91.44 1.24z" fill-rule="nonzero"/></g></svg>