<svg clip-rule="evenodd" fill-rule="evenodd" height="512" image-rendering="optimizeQuality" shape-rendering="geometricPrecision" text-rendering="geometricPrecision" viewBox="0 0 17.69 23.65" width="382" xmlns="http://www.w3.org/2000/svg"><path d="m3.08 0h7.91l6.7 6.99v13.58c0 1.7-1.38 3.08-3.08 3.08h-11.53c-1.7 0-3.08-1.38-3.08-3.08v-17.49c0-1.7 1.38-3.08 3.08-3.08z" fill="#60a313"/><g fill="#fff"><path d="m10.98 0v6.93h6.71z" fill-opacity=".301961"/><path d="m6 17.87c-.14 0-.26-.02-.37-.07-.12-.04-.22-.11-.31-.2s-.16-.19-.21-.31c-.04-.11-.06-.23-.06-.37v-1.29c0-.14-.04-.24-.11-.31-.08-.06-.19-.1-.35-.1h-.07v-1h.07c.16 0 .27-.03.35-.1.07-.07.11-.17.11-.31v-1.29c0-.13.02-.26.06-.37.05-.11.12-.22.21-.31s.19-.16.31-.2c.11-.05.23-.07.37-.07h.51v.97h-.17c-.09 0-.15.02-.19.06-.04.05-.06.12-.06.22v1.21c0 .1-.02.2-.04.28-.03.08-.07.15-.12.21-.05.05-.11.1-.18.15l-.1.05.1.05c.07.05.13.1.18.15.11.11.16.28.16.49v1.22c0 .09.02.17.06.21s.1.07.19.07h.17v.96zm5.69 0h-.51v-.96h.17c.08 0 .15-.03.19-.07s.06-.12.06-.21v-1.22c0-.1.01-.2.04-.28.02-.08.06-.15.11-.21.05-.05.11-.1.19-.15l.09-.05-.09-.05c-.07-.05-.13-.1-.18-.15-.06-.06-.1-.13-.12-.21-.03-.08-.04-.18-.04-.28v-1.21c0-.1-.02-.17-.06-.22-.04-.04-.11-.06-.19-.06h-.17v-.97h.51c.13 0 .26.02.37.07.12.04.22.11.31.2s.16.19.2.31c.05.11.07.24.07.37v1.29c0 .14.04.24.11.31s.19.1.35.1h.07v1h-.07c-.16 0-.28.04-.35.1-.07.07-.11.17-.11.31v1.29c0 .27-.09.5-.27.68-.09.09-.19.16-.31.2-.11.05-.24.07-.37.07zm-3.1-4.37h1.09v1.12h-1.16v-1.12zm-.6 4.15.46-1.9h1.3c-.34.66-.67 1.32-1 1.99h-.78z" fill-rule="nonzero"/></g></svg>