<svg clip-rule="evenodd" fill-rule="evenodd" height="512" image-rendering="optimizeQuality" shape-rendering="geometricPrecision" text-rendering="geometricPrecision" viewBox="0 0 17.69 23.65" width="382" xmlns="http://www.w3.org/2000/svg"><path d="m3.08 0h7.91l6.7 6.99v13.58c0 1.7-1.38 3.08-3.08 3.08h-11.53c-1.7 0-3.08-1.38-3.08-3.08v-17.49c0-1.7 1.38-3.08 3.08-3.08z" fill="#0ac963"/><g fill="#fff"><path d="m10.98 0v6.93h6.71z" fill-opacity=".301961"/><path d="m11.85 11.82h-6.01c-.45 0-.82.37-.82.82v3.82c0 .45.37.82.82.82h6.01c.45 0 .81-.37.81-.82v-3.82c0-.45-.36-.82-.81-.82zm-4.37 1.03c.49 0 .88.4.88.88 0 .49-.39.89-.88.89s-.89-.4-.89-.89c0-.48.4-.88.89-.88zm4.64 3.61c0 .15-.12.28-.27.28h-6.01c-.15 0-.27-.13-.27-.28v-.16l1.09-1.09.9.9c.11.11.28.11.39 0l2.26-2.26 1.91 1.91z"/></g></svg>