<svg clip-rule="evenodd" fill-rule="evenodd" height="512" image-rendering="optimizeQuality" shape-rendering="geometricPrecision" text-rendering="geometricPrecision" viewBox="0 0 20.49 27.4" width="382" xmlns="http://www.w3.org/2000/svg"><path d="m3.56 0h9.17l7.76 8.1v15.73c0 1.97-1.59 3.57-3.56 3.57h-13.37c-1.96 0-3.56-1.6-3.56-3.57v-20.27c0-1.96 1.6-3.56 3.56-3.56z" fill="#e0c600"/><g fill="#fff"><path d="m12.72 0v8.03h7.77z" fill-opacity=".301961"/><path d="m6.56 18.61c.11.02.22.03.33.03.46 0 .69-.22.69-.65v-3.72h1.34v3.8c0 .59-.15 1.04-.45 1.35-.29.3-.7.46-1.22.46-.21 0-.44-.02-.69-.07zm5.2 1.29c-.56 0-1.06-.17-1.48-.51-.42-.35-.65-.77-.68-1.28l1.22-.35c.03.27.14.5.33.68.2.18.42.27.67.27.21 0 .37-.05.5-.14s.19-.2.19-.35c0-.12-.05-.23-.15-.31-.1-.09-.23-.16-.39-.21s-.34-.11-.54-.16-.4-.12-.6-.21c-.19-.08-.37-.18-.53-.3-.16-.11-.29-.28-.4-.49-.1-.21-.15-.45-.15-.73 0-.46.2-.84.59-1.14.39-.31.86-.46 1.41-.46.54 0 1.02.13 1.43.4.4.26.65.61.75 1.04l-1.27.53c-.06-.24-.16-.43-.32-.57s-.36-.21-.59-.21c-.18 0-.32.04-.43.11-.1.07-.15.17-.15.29s.07.21.21.29c.13.07.3.13.51.16.2.03.42.09.66.17s.46.18.67.29c.2.12.37.31.51.56s.2.55.2.91c0 .51-.2.93-.6 1.25-.4.31-.92.47-1.57.47z" fill-rule="nonzero"/></g></svg>