<svg clip-rule="evenodd" fill-rule="evenodd" height="512" image-rendering="optimizeQuality" shape-rendering="geometricPrecision" text-rendering="geometricPrecision" viewBox="0 0 38.89 51.99" width="382" xmlns="http://www.w3.org/2000/svg"><path d="m6.76 0h17.4l14.73 15.36v29.87c0 3.73-3.03 6.76-6.77 6.76h-25.36c-3.73 0-6.76-3.03-6.76-6.76v-38.47c0-3.73 3.03-6.76 6.76-6.76z" fill="#0067bd"/><g fill="#fff"><path d="m24.14 0v15.24h14.75z" fill-opacity=".301961"/><path d="m22.28 32.48 5.89 3.72v-7.59zm-.99.66-1.55 1.02c-.09.06-.19.09-.3.09-.1 0-.21-.03-.3-.09l-1.54-1.02-6.85 4.33c.09.52.52.92 1.06.92h15.27c.54 0 .97-.4 1.05-.92zm5.79-6.75h-15.27c-.55 0-.98.41-1.06.93l8.69 5.73 8.69-5.73c-.08-.52-.51-.93-1.05-.93zm-16.36 2.22v7.59l5.88-3.72z" fill-rule="nonzero"/></g></svg>