<svg clip-rule="evenodd" fill-rule="evenodd" height="512" image-rendering="optimizeQuality" shape-rendering="geometricPrecision" text-rendering="geometricPrecision" viewBox="0 0 20.49 27.4" width="382" xmlns="http://www.w3.org/2000/svg"><path d="m3.56 0h9.17l7.76 8.1v15.73c0 1.97-1.59 3.57-3.56 3.57h-13.37c-1.96 0-3.56-1.6-3.56-3.57v-20.27c0-1.96 1.6-3.56 3.56-3.56z" fill="#008bf5"/><g fill="#fff"><path d="m12.72 0v8.03h7.77z" fill-opacity=".301961"/><path d="m6.88 14.04c.87-.86 2.06-1.39 3.37-1.39s2.5.53 3.36 1.39c.87.86 1.4 2.05 1.4 3.35v2.13c0 .28-.11.54-.3.72-.18.19-.44.3-.72.3h-.49v-3.11h.53v-.04c0-1.03-.43-1.97-1.11-2.65-.69-.69-1.63-1.11-2.67-1.11s-1.99.42-2.68 1.11c-.68.68-1.1 1.62-1.1 2.65v.04h.53v3.11h-.49c-.29 0-.54-.11-.73-.3-.18-.18-.3-.44-.3-.72v-2.13c0-1.3.54-2.49 1.4-3.35zm5.06 2.86h.27c.21 0 .4.09.53.22.14.14.22.33.22.54v2.66c0 .21-.08.4-.22.53-.13.14-.32.23-.53.23h-.27c-.14 0-.26-.06-.35-.15s-.14-.21-.14-.35v-3.19c0-.13.05-.26.14-.34.09-.09.21-.15.35-.15zm-3.65 0h.26c.14 0 .26.06.35.15.09.08.14.21.14.34v3.19c0 .14-.05.26-.14.35s-.21.15-.35.15h-.26c-.21 0-.4-.09-.54-.23-.14-.13-.22-.32-.22-.53v-2.66c0-.21.08-.4.22-.54.14-.13.33-.22.54-.22z" fill-rule="nonzero"/></g></svg>