<svg clip-rule="evenodd" fill-rule="evenodd" height="512" image-rendering="optimizeQuality" shape-rendering="geometricPrecision" text-rendering="geometricPrecision" viewBox="0 0 29.93 40.02" width="382" xmlns="http://www.w3.org/2000/svg"><path d="m5.21 0h13.38l11.34 11.82v22.99c0 2.88-2.33 5.21-5.2 5.21h-19.52c-2.88 0-5.21-2.33-5.21-5.21v-29.6c0-2.88 2.33-5.21 5.21-5.21z" fill="#fa0000"/><g fill="#fff"><path d="m18.58 0v11.73h11.35z" fill-opacity=".301961"/><path d="m14.97 18.16c-3.57 0-6.47 2.9-6.47 6.47s2.9 6.46 6.47 6.46 6.46-2.89 6.46-6.46-2.9-6.46-6.46-6.47zm2.72 6.67c-.05.09-.12.16-.21.21l-3.69 1.85c-.23.11-.51.02-.62-.21-.04-.06-.05-.13-.05-.21v-3.69c0-.26.21-.46.46-.46.07 0 .14.01.21.05l3.69 1.84c.23.12.32.39.21.62z" fill-rule="nonzero"/></g></svg>