<svg clip-rule="evenodd" fill-rule="evenodd" height="512" image-rendering="optimizeQuality" shape-rendering="geometricPrecision" text-rendering="geometricPrecision" viewBox="0 0 24.33 32.53" width="382" xmlns="http://www.w3.org/2000/svg"><path d="m4.23 0h10.88l9.22 9.61v18.69c0 2.33-1.9 4.23-4.23 4.23h-15.87c-2.34 0-4.23-1.9-4.23-4.23v-24.07c0-2.34 1.89-4.23 4.23-4.23z" fill="#90c"/><g fill="#fff"><path d="m15.1 0v9.53h9.23z" fill-opacity=".301961"/><path d="m15.07 21.38c.31-.52.52-1.18.56-1.83.02-.42-.07-.86-.27-1.27-.32-.65-.86-1.01-1.39-1.37-.39-.26-.76-.51-1.02-.86l-.05-.06c-.15-.21-.33-.45-.36-.65-.02-.2-.21-.34-.4-.33-.21.02-.36.18-.36.39v6.86c-.32-.2-.72-.32-1.16-.32-1.06 0-1.92.69-1.92 1.54s.86 1.54 1.92 1.54 1.93-.69 1.93-1.54v-4.49c.58.23 1.52.79 1.78 2.1-.05.07-.09.15-.15.21-.14.16-.12.4.04.55.16.14.4.12.54-.04.1-.12.2-.25.28-.4.01-.01.02-.02.03-.03z" fill-rule="nonzero"/></g></svg>