<svg clip-rule="evenodd" fill-rule="evenodd" height="512" image-rendering="optimizeQuality" shape-rendering="geometricPrecision" text-rendering="geometricPrecision" viewBox="0 0 29.93 40.02" width="382" xmlns="http://www.w3.org/2000/svg"><path d="m5.21 0h13.38l11.34 11.82v22.99c0 2.88-2.33 5.21-5.2 5.21h-19.52c-2.88 0-5.21-2.33-5.21-5.21v-29.6c0-2.88 2.33-5.21 5.21-5.21z" fill="#e5252a"/><g fill="#fff"><path d="m18.58 0v11.73h11.35z" fill-opacity=".301961"/><path d="m5.79 29.86v-7.31h3.11c.77 0 1.38.21 1.84.64.46.42.69.99.69 1.7s-.23 1.28-.69 1.7c-.46.43-1.07.64-1.84.64h-1.24v2.63zm1.87-4.22h1.03c.28 0 .5-.06.65-.2.15-.13.23-.31.23-.55s-.08-.42-.23-.55c-.15-.14-.37-.2-.65-.2h-1.03zm4.54 4.22v-7.31h2.59c.51 0 .99.07 1.44.22s.86.36 1.22.65c.36.28.65.66.86 1.14.2.48.31 1.03.31 1.65 0 .61-.11 1.16-.31 1.64-.21.48-.5.86-.86 1.14-.36.29-.77.5-1.22.65s-.93.22-1.44.22zm1.83-1.59h.54c.29 0 .56-.03.81-.1.24-.07.47-.18.69-.33.21-.15.38-.36.5-.64s.18-.61.18-.99c0-.39-.06-.72-.18-1s-.29-.49-.5-.64c-.22-.15-.45-.26-.69-.33-.25-.07-.52-.1-.81-.1h-.54zm5.53 1.59v-7.31h5.2v1.59h-3.33v1.17h2.66v1.58h-2.66v2.97z" fill-rule="nonzero"/></g></svg>