<svg clip-rule="evenodd" fill-rule="evenodd" height="512" image-rendering="optimizeQuality" shape-rendering="geometricPrecision" text-rendering="geometricPrecision" viewBox="0 0 17.69 23.65" width="382" xmlns="http://www.w3.org/2000/svg"><path d="m3.08 0h7.91l6.7 6.99v13.58c0 1.7-1.38 3.08-3.08 3.08h-11.53c-1.7 0-3.08-1.38-3.08-3.08v-17.49c0-1.7 1.38-3.08 3.08-3.08z" fill="#7542ed"/><g fill="#fff"><path d="m10.98 0v6.93h6.71z" fill-opacity=".301961"/><path d="m5.19 16.97c-.06-.03-.12-.06-.16-.11l-1.92-1.92c-.05-.04-.08-.1-.11-.16-.02-.06-.04-.12-.04-.19s.02-.13.04-.19c.03-.06.06-.12.11-.16l1.92-1.92c.04-.05.1-.08.16-.11.06-.02.12-.04.19-.04.14 0 .26.06.35.15.1.09.15.22.15.35 0 .07-.01.13-.04.2-.02.06-.06.11-.11.16l-1.56 1.56 1.56 1.56c.05.05.09.1.11.16.03.07.04.13.04.2 0 .13-.05.26-.15.35-.09.09-.21.15-.35.15-.07 0-.13-.02-.19-.04zm2.73-3.3c-.09.09-.22.14-.35.14-.14 0-.27-.05-.36-.14s-.14-.22-.14-.36c0-.49.19-.93.52-1.25.32-.33.76-.52 1.25-.52s.94.19 1.26.52c.32.32.52.76.52 1.25 0 .43-.15.82-.4 1.13-.22.27-.52.48-.88.58v.85c0 .13-.05.26-.14.35s-.22.15-.36.15c-.13 0-.26-.06-.35-.15s-.15-.22-.15-.35v-1.28c0-.14.06-.26.15-.35s.22-.15.35-.15c.22 0 .41-.09.55-.23s.23-.33.23-.55c0-.21-.09-.41-.23-.55s-.33-.22-.55-.22c-.21 0-.41.08-.55.22s-.22.34-.22.55c0 .14-.06.27-.15.36zm1.28 3.12c.09.09.14.22.14.35 0 .14-.05.27-.14.36s-.22.14-.36.14c-.13 0-.26-.05-.35-.14s-.15-.22-.15-.36c0-.13.06-.26.15-.35s.22-.15.35-.15c.14 0 .27.06.36.15zm2.92.18c-.07-.03-.12-.06-.17-.11-.04-.05-.08-.1-.11-.16-.02-.06-.03-.13-.03-.19 0-.07.01-.14.03-.2.03-.06.07-.11.11-.16l1.56-1.56-1.56-1.56c-.04-.05-.08-.1-.11-.16-.02-.06-.03-.13-.03-.2 0-.13.05-.26.14-.35s.22-.15.36-.15c.06 0 .13.02.19.04.06.03.12.06.16.11l1.92 1.92c.04.04.08.1.1.16.03.06.04.12.04.19s-.01.13-.03.19c-.03.06-.07.12-.11.16l-1.92 1.92c-.04.05-.1.08-.16.11-.06.02-.13.04-.19.04-.07 0-.13-.02-.19-.04z" fill-rule="nonzero"/></g></svg>