<svg clip-rule="evenodd" fill-rule="evenodd" height="512" image-rendering="optimizeQuality" shape-rendering="geometricPrecision" text-rendering="geometricPrecision" viewBox="0 0 38.89 51.99" width="382" xmlns="http://www.w3.org/2000/svg"><path d="m6.76 0h17.4l14.73 15.36v29.87c0 3.73-3.03 6.76-6.77 6.76h-25.36c-3.73 0-6.76-3.03-6.76-6.76v-38.47c0-3.73 3.03-6.76 6.76-6.76z" fill="#fa0000"/><g fill="#fff"><path d="m24.14 0v15.24h14.75z" fill-opacity=".301961"/><path d="m25.73 31.47-9.59-5.4c-.19-.1-.42-.1-.6.01-.18.1-.3.3-.3.51v10.8c0 .21.12.41.3.52.09.05.2.08.3.08s.21-.02.3-.08l9.59-5.39c.19-.11.31-.31.31-.53 0-.21-.12-.41-.31-.52z" fill-rule="nonzero"/></g></svg>