<svg clip-rule="evenodd" fill-rule="evenodd" height="512" image-rendering="optimizeQuality" shape-rendering="geometricPrecision" text-rendering="geometricPrecision" viewBox="0 0 24.33 32.53" width="382" xmlns="http://www.w3.org/2000/svg"><path d="m4.23 0h10.88l9.22 9.61v18.69c0 2.33-1.9 4.23-4.23 4.23h-15.87c-2.34 0-4.23-1.9-4.23-4.23v-24.07c0-2.34 1.89-4.23 4.23-4.23z" fill="#e03303"/><g fill="#fff"><path d="m15.1 0v9.53h9.23z" fill-opacity=".301961"/><path d="m11.76 16.13c-2.44.12-4.38 2.15-4.35 4.62.04 2.46 2.04 4.47 4.5 4.5 2.48.04 4.51-1.9 4.62-4.34.01-.12-.09-.22-.21-.22h-4.13c-.12 0-.22-.1-.22-.21v-4.14c0-.12-.09-.21-.21-.21zm1.1-.67v4.13c0 .12.09.21.21.21h4.14c.12 0 .21-.1.21-.22-.11-2.34-1.99-4.22-4.34-4.33-.12-.01-.22.09-.22.21z" fill-rule="nonzero"/></g></svg>