<svg clip-rule="evenodd" fill-rule="evenodd" height="512" image-rendering="optimizeQuality" shape-rendering="geometricPrecision" text-rendering="geometricPrecision" viewBox="0 0 29.93 40.02" width="382" xmlns="http://www.w3.org/2000/svg"><path d="m5.21 0h13.38l11.34 11.82v22.99c0 2.88-2.33 5.21-5.2 5.21h-19.52c-2.88 0-5.21-2.33-5.21-5.21v-29.6c0-2.88 2.33-5.21 5.21-5.21z" fill="#e03303"/><g fill="#fff"><path d="m18.58 0v11.73h11.35z" fill-opacity=".301961"/><path d="m6.29 28.63v-7.27h3.09c.76 0 1.37.21 1.83.64.45.42.68.98.68 1.69 0 .7-.23 1.27-.68 1.69-.46.42-1.07.63-1.83.63h-1.24v2.62zm1.85-4.2h1.03c.28 0 .49-.06.65-.19.15-.13.22-.32.22-.55 0-.24-.07-.42-.22-.55-.16-.13-.37-.2-.65-.2h-1.03zm4.53 4.2v-7.27h3.09c.76 0 1.37.21 1.83.64.46.42.68.98.68 1.69 0 .7-.22 1.27-.68 1.69s-1.07.63-1.83.63h-1.23v2.62zm1.86-4.2h1.02c.28 0 .5-.06.65-.19s.23-.32.23-.55c0-.24-.08-.42-.23-.55s-.37-.2-.65-.2h-1.02zm6.41 4.2v-5.69h-2.07v-1.58h6.01v1.58h-2.08v5.69z" fill-rule="nonzero"/></g></svg>