<svg clip-rule="evenodd" fill-rule="evenodd" height="512" image-rendering="optimizeQuality" shape-rendering="geometricPrecision" text-rendering="geometricPrecision" viewBox="0 0 55.48 74.18" width="382" xmlns="http://www.w3.org/2000/svg"><path d="m9.65 0h24.82l21.01 21.92v42.61c0 5.33-4.32 9.65-9.65 9.65h-36.18c-5.33 0-9.65-4.32-9.65-9.65v-54.88c0-5.33 4.32-9.65 9.65-9.65z" fill="#fa0000"/><g fill="#fff"><path d="m34.44 0v21.74h21.04z" fill-opacity=".301961"/><path d="m35.04 46.02c0-.45-.34-.8-.8-.8s-.81.35-.81.8c0 3.15-2.55 5.7-5.69 5.7s-5.69-2.55-5.69-5.7c0-.45-.35-.8-.81-.8-.45 0-.8.35-.8.8 0 3.74 2.79 6.88 6.5 7.28v2.15h-2.93c-.46 0-.81.35-.81.8 0 .46.35.81.81.81h7.46c.46 0 .81-.35.81-.81 0-.45-.35-.8-.81-.8h-2.92v-2.15c3.7-.4 6.49-3.54 6.49-7.28zm-7.3-11.78c-2.47 0-4.48 2.01-4.48 4.48v7.28c0 2.49 2.01 4.48 4.48 4.51 2.47 0 4.49-2.02 4.49-4.49v-7.3c0-2.47-2.02-4.48-4.49-4.48z" fill-rule="nonzero"/></g></svg>