<svg clip-rule="evenodd" fill-rule="evenodd" height="512" image-rendering="optimizeQuality" shape-rendering="geometricPrecision" text-rendering="geometricPrecision" viewBox="0 0 55.48 74.18" width="382" xmlns="http://www.w3.org/2000/svg"><path d="m9.65 0h24.82l21.01 21.92v42.61c0 5.33-4.32 9.65-9.65 9.65h-36.18c-5.33 0-9.65-4.32-9.65-9.65v-54.88c0-5.33 4.32-9.65 9.65-9.65z" fill="#f60"/><g fill="#fff"><path d="m34.44 0v21.74h21.04z" fill-opacity=".301961"/><path d="m14.66 51.92c-1.35 0-2.54-.41-3.55-1.24s-1.56-1.85-1.65-3.06l2.94-.86c.07.66.33 1.21.81 1.65.47.43 1 .65 1.6.65.5 0 .9-.11 1.21-.33.3-.22.46-.5.46-.86 0-.29-.13-.54-.37-.75-.24-.2-.56-.37-.94-.49-.39-.13-.83-.26-1.3-.39-.48-.12-.96-.29-1.43-.49-.47-.21-.9-.45-1.29-.73s-.71-.67-.95-1.18c-.24-.5-.36-1.09-.36-1.77 0-1.09.47-2.01 1.4-2.74.94-.73 2.07-1.1 3.4-1.1 1.31 0 2.46.32 3.43.96.98.63 1.59 1.47 1.83 2.5l-3.06 1.28c-.14-.57-.4-1.03-.79-1.36-.38-.34-.85-.51-1.41-.51-.43 0-.77.08-1.02.26-.25.17-.38.4-.38.69s.17.52.5.69c.33.18.74.31 1.23.4.49.08 1.03.22 1.6.41.58.19 1.11.42 1.6.71.49.28.9.72 1.23 1.32.33.61.5 1.34.5 2.19 0 1.24-.48 2.24-1.44 3.01-.97.76-2.23 1.14-3.8 1.14zm10.17-.15-4.72-13.39h3.48l2.85 9.26 2.89-9.26h3.46l-4.72 13.39zm14.62.15c-1.85 0-3.42-.6-4.72-1.79-1.29-1.2-1.94-2.88-1.94-5.05 0-1.47.33-2.73 1-3.79.66-1.06 1.5-1.83 2.53-2.32s2.16-.74 3.41-.74c1.74 0 3.16.41 4.26 1.23 1.1.83 1.78 1.98 2.04 3.46l-3.37.68c-.14-.75-.48-1.35-1.02-1.79-.54-.45-1.19-.67-1.94-.67-1.05 0-1.89.35-2.54 1.06-.64.71-.97 1.67-.97 2.88s.32 2.17.96 2.88c.64.7 1.47 1.06 2.49 1.06.78 0 1.43-.18 1.97-.55.53-.36.85-.84.95-1.42h-3.3v-2.68h6.46v7.4h-3.12v-1.18c-.26.4-.69.73-1.26.97s-1.2.36-1.89.36z" fill-rule="nonzero"/></g></svg>