<svg clip-rule="evenodd" fill-rule="evenodd" height="512" image-rendering="optimizeQuality" shape-rendering="geometricPrecision" text-rendering="geometricPrecision" viewBox="0 0 24.33 32.53" width="382" xmlns="http://www.w3.org/2000/svg"><path d="m4.23 0h10.88l9.22 9.61v18.69c0 2.33-1.9 4.23-4.23 4.23h-15.87c-2.34 0-4.23-1.9-4.23-4.23v-24.07c0-2.34 1.89-4.23 4.23-4.23z" fill="#251d36"/><g fill="#fff"><path d="m15.1 0v9.53h9.23z" fill-opacity=".301961"/><path d="m16.45 21.21h-8.57c-.4 0-.72.32-.72.72 0 .39.32.71.72.71h8.57c.4 0 .72-.32.72-.71 0-.4-.32-.72-.72-.72zm0 2.86h-8.57c-.4 0-.72.32-.72.72 0 .39.32.71.72.71h8.57c.4 0 .72-.32.72-.71 0-.4-.32-.72-.72-.72zm-4.36-8.57h-4.21c-.4 0-.72.31-.72.71s.32.71.72.71h4.21c.4 0 .72-.31.72-.71s-.32-.71-.72-.71zm4.36 2.85h-8.57c-.4 0-.72.32-.72.72 0 .39.32.71.72.71h8.57c.4 0 .72-.32.72-.71 0-.4-.32-.72-.72-.72z" fill-rule="nonzero"/></g></svg>