<svg clip-rule="evenodd" fill-rule="evenodd" height="512" image-rendering="optimizeQuality" shape-rendering="geometricPrecision" text-rendering="geometricPrecision" viewBox="0 0 29.93 40.02" width="382" xmlns="http://www.w3.org/2000/svg"><path d="m5.21 0h13.38l11.34 11.82v22.99c0 2.88-2.33 5.21-5.2 5.21h-19.52c-2.88 0-5.21-2.33-5.21-5.21v-29.6c0-2.88 2.33-5.21 5.21-5.21z" fill="#0e1e31"/><g fill="#fff"><path d="m18.58 0v11.73h11.35z" fill-opacity=".301961"/><path d="m8.04 28.01v-5.69h-2.08v-1.57h6.01v1.57h-2.08v5.69zm6.28 0v-5.69h-2.08v-1.57h6.01v1.57h-2.08v5.69zm4.48 0v-7.26h5.17v1.57h-3.31v1.17h2.65v1.57h-2.65v2.95z" fill-rule="nonzero"/></g></svg>