<svg clip-rule="evenodd" fill-rule="evenodd" height="512" image-rendering="optimizeQuality" shape-rendering="geometricPrecision" text-rendering="geometricPrecision" viewBox="0 0 29.93 40.02" width="382" xmlns="http://www.w3.org/2000/svg"><path d="m5.21 0h13.38l11.34 11.82v22.99c0 2.88-2.33 5.21-5.2 5.21h-19.52c-2.88 0-5.21-2.33-5.21-5.21v-29.6c0-2.88 2.33-5.21 5.21-5.21z" fill="#251d36"/><g fill="#fff"><path d="m18.58 0v11.73h11.35z" fill-opacity=".301961"/><path d="m7.56 29.22v-5.69h-2.08v-1.58h6.01v1.58h-2.07v5.69zm10.69 0h-1.95l-1.33-2.23-1.33 2.23h-1.96l2.31-3.88-2.02-3.39h1.95l1.05 1.76 1.04-1.76h1.96l-2.02 3.4zm2.26 0v-5.69h-2.07v-1.58h6.01v1.58h-2.08v5.69z" fill-rule="nonzero"/></g></svg>