<svg clip-rule="evenodd" fill-rule="evenodd" height="512" image-rendering="optimizeQuality" shape-rendering="geometricPrecision" text-rendering="geometricPrecision" viewBox="0 0 38.89 51.99" width="382" xmlns="http://www.w3.org/2000/svg"><path d="m6.76 0h17.4l14.73 15.36v29.87c0 3.73-3.03 6.76-6.77 6.76h-25.36c-3.73 0-6.76-3.03-6.76-6.76v-38.47c0-3.73 3.03-6.76 6.76-6.76z" fill="#f60"/><g fill="#fff"><path d="m24.14 0v15.24h14.75z" fill-opacity=".301961"/><path d="m28.17 34.32h-.57c-.19-2.76-1.78-5.2-4.09-6.54h2.03c.23.63.83 1.09 1.54 1.09.9 0 1.63-.74 1.63-1.64s-.73-1.64-1.63-1.64c-.71 0-1.31.46-1.54 1.09h-4.46v-.54c0-.3-.25-.55-.55-.55h-2.18c-.3 0-.54.25-.54.55v.54h-4.47c-.22-.63-.82-1.09-1.53-1.09-.9 0-1.64.74-1.64 1.64s.74 1.64 1.64 1.64c.71 0 1.31-.46 1.53-1.09h2.04c-2.32 1.34-3.91 3.78-4.09 6.54h-.57c-.3 0-.55.24-.55.54v2.19c0 .3.25.54.55.54h2.18c.3 0 .54-.24.54-.54v-2.19c0-.3-.24-.54-.54-.54h-.5c.24-3.05 2.44-5.62 5.41-6.32v.32c0 .3.24.55.54.55h2.18c.3 0 .55-.25.55-.55v-.32c2.96.7 5.16 3.27 5.4 6.32h-.49c-.31 0-.55.24-.55.54v2.19c0 .3.24.54.55.54h2.18c.3 0 .54-.24.54-.54v-2.19c0-.3-.24-.54-.54-.54z" fill-rule="nonzero"/></g></svg>