<svg clip-rule="evenodd" fill-rule="evenodd" height="512" image-rendering="optimizeQuality" shape-rendering="geometricPrecision" text-rendering="geometricPrecision" viewBox="0 0 17.69 23.65" width="382" xmlns="http://www.w3.org/2000/svg"><path d="m3.08 0h7.91l6.7 6.99v13.58c0 1.7-1.38 3.08-3.08 3.08h-11.53c-1.7 0-3.08-1.38-3.08-3.08v-17.49c0-1.7 1.38-3.08 3.08-3.08z" fill="#fa0000"/><g fill="#fff"><path d="m10.98 0v6.93h6.71z" fill-opacity=".301961"/><path d="m12.94 12.66c-.08-.06-.2-.06-.29-.02l-1.99 1v-.72c0-.51-.4-.91-.91-.91h-4.24c-.5 0-.91.4-.91.91v3.63c0 .51.41.91.91.91h4.24c.51 0 .91-.4.91-.91v-.72l1.99 1c.15.07.33.01.41-.14.02-.04.03-.09.03-.14v-3.63c0-.11-.06-.21-.15-.26zm-5.31 3.29c-.67 0-1.21-.55-1.21-1.22s.54-1.21 1.21-1.21 1.21.54 1.21 1.21-.54 1.22-1.21 1.22z" fill-rule="nonzero"/></g></svg>