<svg clip-rule="evenodd" fill-rule="evenodd" height="512" image-rendering="optimizeQuality" shape-rendering="geometricPrecision" text-rendering="geometricPrecision" viewBox="0 0 38.89 51.99" width="382" xmlns="http://www.w3.org/2000/svg"><path d="m6.76 0h17.4l14.73 15.36v29.87c0 3.73-3.03 6.76-6.77 6.76h-25.36c-3.73 0-6.76-3.03-6.76-6.76v-38.47c0-3.73 3.03-6.76 6.76-6.76z" fill="#0263d1" fill-rule="nonzero"/><g fill="#fff"><path d="m24.14 0v15.24h14.75z" fill-opacity=".301961"/><path d="m26.3 27.05h-13.71c-.63 0-1.15-.51-1.15-1.14s.52-1.14 1.15-1.14h13.71c.63 0 1.14.51 1.14 1.14s-.51 1.14-1.14 1.14zm-4.57 13.71h-9.14c-.63 0-1.15-.51-1.15-1.14s.52-1.14 1.15-1.14h9.14c.63 0 1.14.51 1.14 1.14s-.51 1.14-1.14 1.14zm4.57-4.57h-13.71c-.63 0-1.15-.51-1.15-1.14s.52-1.14 1.15-1.14h13.71c.63 0 1.14.51 1.14 1.14s-.51 1.14-1.14 1.14zm0-4.57h-13.71c-.63 0-1.15-.51-1.15-1.14s.52-1.14 1.15-1.14h13.71c.63 0 1.14.51 1.14 1.14s-.51 1.14-1.14 1.14z" fill-rule="nonzero"/></g></svg>