<svg clip-rule="evenodd" fill-rule="evenodd" height="512" image-rendering="optimizeQuality" shape-rendering="geometricPrecision" text-rendering="geometricPrecision" viewBox="0 0 20.49 27.4" width="382" xmlns="http://www.w3.org/2000/svg"><path d="m3.56 0h9.17l7.76 8.1v15.73c0 1.97-1.59 3.57-3.56 3.57h-13.37c-1.96 0-3.56-1.6-3.56-3.57v-20.27c0-1.96 1.6-3.56 3.56-3.56z" fill="#00733b"/><g fill="#fff"><path d="m12.72 0v8.03h7.77z" fill-opacity=".301961"/><path d="m8.52 19.95h-1.33l-.91-1.53-.91 1.53h-1.34l1.58-2.66-1.39-2.31h1.34l.72 1.2.71-1.2h1.34l-1.38 2.32zm.47 0v-4.97h1.27v3.89h2.16v1.08zm5.53.06c-.5 0-.94-.16-1.32-.47-.37-.3-.58-.68-.61-1.13l1.09-.32c.03.24.13.45.3.61.18.16.38.24.6.24.18 0 .33-.04.45-.12.11-.08.17-.19.17-.32 0-.11-.05-.2-.14-.28-.09-.07-.21-.13-.35-.18s-.31-.1-.48-.14c-.18-.05-.36-.11-.53-.19-.18-.07-.34-.16-.48-.27-.15-.1-.26-.25-.35-.44-.09-.18-.14-.4-.14-.65 0-.41.17-.75.52-1.02.35-.28.77-.41 1.26-.41s.92.12 1.28.35c.36.24.59.55.68.93l-1.14.48c-.05-.21-.15-.38-.29-.51-.14-.12-.32-.19-.53-.19-.16 0-.28.04-.38.1-.09.06-.13.15-.13.26 0 .1.06.19.18.26.12.06.28.11.46.14s.38.08.59.15c.22.08.41.16.6.27.18.1.33.27.45.49.13.23.19.5.19.81 0 .46-.18.84-.54 1.12s-.83.43-1.41.43z" fill-rule="nonzero"/></g></svg>