<svg clip-rule="evenodd" fill-rule="evenodd" height="512" image-rendering="optimizeQuality" shape-rendering="geometricPrecision" text-rendering="geometricPrecision" viewBox="0 0 24.33 32.53" width="382" xmlns="http://www.w3.org/2000/svg"><path d="m4.23 0h10.88l9.22 9.61v18.69c0 2.33-1.9 4.23-4.23 4.23h-15.87c-2.34 0-4.23-1.9-4.23-4.23v-24.07c0-2.34 1.89-4.23 4.23-4.23z" fill="#ffb11f"/><g fill="#fff"><path d="m15.1 0v9.53h9.23z" fill-opacity=".301961"/><path d="m8.96 16.9v-2.22c0-.24-.19-.43-.43-.43h-1.2c-.24 0-.43.19-.43.43v2.22l-.67 1.96c-.19.55-.1 1.16.24 1.63.33.47.88.75 1.46.75s1.12-.28 1.46-.75.43-1.08.24-1.63zm-.28 3.08c-.34.49-1.16.49-1.51 0-.17-.24-.22-.56-.12-.84l.22-.66h1.31l.23.66c.09.28.05.6-.13.84zm-3.41-17.65v1.22c0 .24.19.43.43.43h1.63v1.82h-1.63c-.24 0-.43.19-.43.43v.94c0 .24.19.44.43.44h1.63v1.81h-1.63c-.24 0-.43.19-.43.43v.95c0 .24.19.43.43.43h1.63v1.38c0 .24.2.43.44.43h2.39c.23 0 .43-.19.43-.43v-.95c0-.23-.2-.43-.43-.43h-1.64v-1.81h1.64c.23 0 .43-.19.43-.43v-.95c0-.24-.2-.43-.43-.43h-1.64v-1.81h1.64c.23 0 .43-.2.43-.44v-.94c0-.24-.2-.44-.43-.44h-1.64v-1.66s-3.25.01-3.25.01z" fill-rule="nonzero"/></g></svg>